<svg xmlns="http://www.w3.org/2000/svg"
viewBox="0 0 906.49 474.41">
 <defs>
  <style type="text/css">
   <![CDATA[
    .fil1 {fill:#005EF2}
    .fil0 {fill:#282828;fill-rule:nonzero}
   ]]>
  </style>
 </defs>
 <g>
  <g>
   <path class="fil0" d="M61.78 349.73c0,1.99 -0.35,3.79 -1.05,5.35 -0.66,1.52 -1.76,2.73 -3.2,3.59 -1.49,0.82 -3.36,1.25 -5.74,1.25 -0.39,0 -0.82,0 -1.25,-0.04 -0.47,-0.04 -0.9,-0.12 -1.29,-0.2l0 -50.97c0.55,-0.08 1.13,-0.12 1.72,-0.15 0.55,-0.04 1.17,-0.08 1.79,-0.08 1.87,0 3.47,0.39 4.8,1.21 1.37,0.82 2.38,2.03 3.12,3.67 0.74,1.6 1.09,3.63 1.09,6.09l0 30.28zm-30.05 10.07c-0.24,0.08 -0.59,0.16 -1.09,0.2 -0.47,0.04 -0.93,0.04 -1.33,0.04 -2.54,0 -4.53,-0.43 -5.97,-1.36 -1.44,-0.94 -2.5,-2.19 -3.16,-3.71 -0.66,-1.56 -0.98,-3.31 -0.98,-5.23l0 -30.28c0,-2.31 0.39,-4.22 1.21,-5.86 0.82,-1.64 1.95,-2.89 3.39,-3.79 1.49,-0.9 3.24,-1.32 5.27,-1.32 0.39,0 0.86,0.04 1.37,0.08 0.55,0.04 0.98,0.08 1.29,0.15l0 51.08zm45.93 -52.64c-2.26,-3.67 -5.39,-6.52 -9.36,-8.59 -4.02,-2.07 -8.74,-3.12 -14.17,-3.12 -0.9,0 -1.76,0.04 -2.58,0.08 -0.82,0.04 -1.56,0.12 -2.3,0.19l0 -15.57 -17.52 0 0 15.57c-0.74,-0.08 -1.56,-0.16 -2.5,-0.19 -0.94,-0.04 -1.83,-0.08 -2.73,-0.08 -5.19,0 -9.8,1.05 -13.82,3.12 -3.98,2.07 -7.1,4.92 -9.37,8.59 -2.22,3.63 -3.32,7.8 -3.32,12.53l0 29.66c0,5.19 1.05,9.6 3.2,13.19 2.15,3.63 5.07,6.36 8.78,8.24 3.67,1.87 7.76,2.77 12.21,2.77 1.29,0 2.57,-0.04 3.82,-0.12 1.25,-0.08 2.5,-0.16 3.71,-0.23l0 14.71 17.52 0 0 -14.6c1.44,0.08 2.85,0.16 4.18,0.23 1.37,0.08 2.73,0.16 4.1,0.16 4.29,0 8.19,-0.94 11.75,-2.81 3.51,-1.87 6.36,-4.6 8.51,-8.23 2.14,-3.59 3.2,-8 3.2,-13.19l0 -29.78c0,-4.72 -1.09,-8.9 -3.32,-12.53z"/>
   <polygon class="fil0" points="115.78,369.67 138.53,369.67 138.53,384.39 94,384.39 94,285.85 138.26,285.85 138.26,300.71 115.78,300.71 115.78,325.14 132.91,325.14 132.91,340.21 115.78,340.21 "/>
   <path class="fil0" d="M211.74 434.61c0.59,1.6 0.86,3.51 0.86,5.74l0 2.26 -3.4 0 0 -2.18c0,-1.64 -0.12,-3.08 -0.39,-4.25 -0.28,-1.21 -0.78,-2.11 -1.6,-2.77 -0.82,-0.66 -2.03,-0.97 -3.59,-0.97 -1.72,0 -3.01,0.35 -3.86,1.05 -0.86,0.7 -1.4,1.68 -1.72,2.97 -0.31,1.29 -0.43,2.77 -0.43,4.45l0 16.15c0,1.87 0.16,3.44 0.51,4.68 0.39,1.25 0.98,2.19 1.87,2.81 0.86,0.62 2.07,0.94 3.63,0.94 1.6,0 2.81,-0.31 3.59,-1.02 0.82,-0.7 1.33,-1.64 1.6,-2.89 0.27,-1.21 0.39,-2.66 0.39,-4.33l0 -2.5 3.4 0 0 2.26c0,2.22 -0.27,4.18 -0.78,5.89 -0.51,1.68 -1.4,3.04 -2.73,3.98 -1.29,0.97 -3.12,1.48 -5.5,1.48 -2.54,0 -4.53,-0.55 -5.93,-1.6 -1.36,-1.05 -2.34,-2.5 -2.85,-4.29 -0.55,-1.8 -0.82,-3.78 -0.82,-5.97l0 -15.1c0,-2.34 0.27,-4.41 0.82,-6.16 0.55,-1.8 1.52,-3.16 2.93,-4.18 1.41,-1.02 3.36,-1.52 5.85,-1.52 2.3,0 4.1,0.47 5.39,1.32 1.29,0.9 2.23,2.11 2.77,3.75z"/>
   <path class="fil0" d="M191.78 368.81l-25.17 0c1.25,-1.13 2.46,-2.34 3.71,-3.67 1.29,-1.29 2.46,-2.93 3.59,-4.96 1.13,-2.03 2.23,-4.65 3.24,-7.85 1.02,-3.24 1.91,-7.26 2.7,-12.13 0.74,-4.84 1.33,-10.77 1.76,-17.76l1.09 -21.15 9.09 0 0 67.51zm20.33 0l0 -82.97 -45.85 0 -2.69 34.42c-0.47,6.67 -1.09,12.53 -1.79,17.6 -0.74,5.07 -1.64,9.4 -2.7,13.07 -1.05,3.63 -2.22,6.67 -3.51,9.09 -1.33,2.46 -2.73,4.37 -4.33,5.77 -1.56,1.44 -3.32,2.42 -5.15,3.01l-2.81 0 0 36.84 14.94 0 1.21 -21.27 48.31 0 1.09 21.27 14.36 0 0 -36.84 -11.08 0z"/>
   <polygon class="fil0" points="215.69,429.93 233.4,429.93 233.4,432.7 226.42,432.7 226.42,467.9 222.87,467.9 222.87,432.7 215.69,432.7 "/>
   <path class="fil0" d="M241.4 455.14l4.02 -20.49 4.06 20.49 -8.08 0zm5.86 -25.21l-3.75 0 -8 37.97 3.47 0 1.91 -10.18 9.05 0 1.87 10.18 3.51 0 -8.08 -37.97z"/>
   <polygon class="fil0" points="277.15,384.39 232.67,384.39 232.67,285.85 276.92,285.85 276.92,300.71 254.44,300.71 254.44,325.14 271.57,325.14 271.57,340.21 254.44,340.21 254.44,369.67 277.15,369.67 "/>
   <polygon class="fil0" points="275.44,429.93 278.99,429.93 278.99,467.9 275.44,467.9 275.44,449.44 263.5,449.44 263.5,467.9 259.87,467.9 259.87,429.93 263.5,429.93 263.5,446.75 275.44,446.75 "/>
   <path class="fil0" d="M301.95 465.2l-14.05 0c0.55,-0.39 1.02,-0.82 1.48,-1.29 0.47,-0.43 0.94,-1.09 1.36,-1.95 0.39,-0.82 0.78,-2.03 1.13,-3.51 0.35,-1.52 0.66,-3.52 0.98,-6.01 0.31,-2.5 0.59,-5.62 0.82,-9.44l0.7 -10.34 7.57 0 0 32.55zm3.59 0l0 -35.28 -14.32 0 -0.82 12.29c-0.27,3.82 -0.55,7.02 -0.86,9.6 -0.31,2.54 -0.66,4.61 -1.02,6.2 -0.35,1.56 -0.74,2.81 -1.17,3.71 -0.43,0.93 -0.9,1.64 -1.4,2.11 -0.51,0.51 -1.05,0.98 -1.64,1.36l-1.52 0 0 9.21 2.81 0 0.35 -6.52 19.51 0 0.35 6.52 2.81 0 0 -9.21 -3.08 0z"/>
   <path class="fil0" d="M317.05 455.14l4.02 -20.49 4.02 20.49 -8.04 0zm5.86 -25.21l-3.75 0 -8 37.97 3.44 0 1.95 -10.18 9.01 0 1.87 10.18 3.51 0 -8.04 -37.97z"/>
   <path class="fil0" d="M324.92 321.48c-0.47,1.95 -1.37,3.43 -2.73,4.41 -1.41,0.97 -3.44,1.44 -6.09,1.44l-7.3 0 0 -26.15 7.18 0c2.89,0 5.03,0.58 6.44,1.72 1.36,1.13 2.22,2.65 2.61,4.53 0.35,1.91 0.55,4.14 0.55,6.63 0,3.01 -0.23,5.5 -0.66,7.42zm18.3 -22.56c-1.87,-4.25 -4.72,-7.49 -8.51,-9.72 -3.83,-2.22 -8.7,-3.35 -14.6,-3.35l-33.09 0 0 98.54 21.77 0 0 -41.83 8.74 0c5.35,0 10.18,-0.78 14.48,-2.34 4.29,-1.52 7.69,-4.29 10.23,-8.31 2.5,-4.02 3.75,-9.83 3.75,-17.44 0,-6.09 -0.9,-11.28 -2.77,-15.53z"/>
   <path class="fil0" d="M349.46 444.33c-0.47,1.05 -1.13,1.8 -2.11,2.26 -0.94,0.47 -2.19,0.66 -3.71,0.66l-4.56 0 0 -14.63 4.6 0c1.68,0 3,0.19 3.9,0.62 0.93,0.43 1.56,1.17 1.95,2.23 0.39,1.09 0.55,2.61 0.55,4.52 0,1.84 -0.19,3.28 -0.62,4.33zm3.32 -9.6c-0.51,-1.52 -1.44,-2.69 -2.77,-3.51 -1.33,-0.86 -3.12,-1.29 -5.39,-1.29l-9.09 0 0 37.97 3.55 0 0 -17.95 5.58 0c2.14,0 3.9,-0.47 5.23,-1.37 1.33,-0.9 2.26,-2.11 2.85,-3.63 0.59,-1.52 0.86,-3.16 0.86,-4.96 0,-2.03 -0.23,-3.78 -0.82,-5.27z"/>
   <polygon class="fil0" points="355.67,429.93 373.38,429.93 373.38,432.7 366.4,432.7 366.4,467.9 362.85,467.9 362.85,432.7 355.67,432.7 "/>
   <path class="fil0" d="M400.74 463.21c-0.86,1.33 -2.5,1.99 -4.96,1.99l-5.11 0 0 -16.16 5.19 0c1.56,0 2.77,0.35 3.63,1.02 0.9,0.66 1.52,1.6 1.91,2.77 0.39,1.21 0.55,2.57 0.55,4.1 0,2.85 -0.39,4.92 -1.21,6.28zm-10.07 -30.52l3.39 0c1.91,0 3.4,0.23 4.45,0.7 1.02,0.47 1.76,1.21 2.15,2.19 0.43,1.02 0.66,2.26 0.66,3.82 0,1.41 -0.16,2.61 -0.47,3.63 -0.31,1.02 -0.86,1.8 -1.64,2.38 -0.78,0.59 -1.91,0.86 -3.39,0.86l-5.15 0 0 -13.58zm14.28 20.21c-0.35,-1.29 -0.94,-2.42 -1.76,-3.44 -0.86,-0.98 -2.03,-1.68 -3.48,-2.07 1.25,-0.23 2.23,-0.78 2.89,-1.56 0.7,-0.82 1.17,-1.75 1.48,-2.93 0.31,-1.13 0.43,-2.3 0.43,-3.51 0,-1.4 -0.16,-2.69 -0.47,-3.86 -0.35,-1.17 -0.86,-2.19 -1.56,-3.05 -0.74,-0.82 -1.68,-1.48 -2.89,-1.91 -1.17,-0.43 -2.61,-0.66 -4.33,-0.66l-8.16 0 0 37.97 9.37 0c1.79,0 3.24,-0.31 4.41,-0.9 1.13,-0.54 2.07,-1.36 2.73,-2.34 0.66,-1.02 1.13,-2.19 1.4,-3.51 0.27,-1.33 0.39,-2.73 0.39,-4.22 0,-1.36 -0.16,-2.73 -0.47,-4.02z"/>
   <path class="fil0" d="M375.58 350.55l5.23 -38.4 5.23 38.4 -10.46 0zm17.52 -64.7l-24.82 0 -18.62 98.54 20.57 0 3.4 -20.8 14.48 0 3.28 20.8 20.06 0 -18.34 -98.54z"/>
   <polygon class="fil0" points="435.73,429.93 439.28,429.93 439.28,467.9 435.73,467.9 435.73,449.44 423.78,449.44 423.78,467.9 420.16,467.9 420.16,429.93 423.78,429.93 423.78,446.75 435.73,446.75 "/>
   <polygon class="fil0" points="449.48,465.2 459.71,465.2 459.71,467.9 445.85,467.9 445.85,429.93 459.59,429.93 459.59,432.7 449.48,432.7 449.48,446.94 457.72,446.94 457.72,449.56 449.48,449.56 "/>
   <path class="fil0" d="M480.86 465.2l-14.05 0c0.55,-0.39 1.02,-0.82 1.48,-1.29 0.47,-0.43 0.93,-1.09 1.36,-1.95 0.39,-0.82 0.78,-2.03 1.13,-3.51 0.35,-1.52 0.66,-3.52 0.97,-6.01 0.31,-2.5 0.59,-5.62 0.82,-9.44l0.7 -10.34 7.57 0 0 32.55zm3.59 0l0 -35.28 -14.32 0 -0.82 12.29c-0.27,3.82 -0.55,7.02 -0.86,9.6 -0.31,2.54 -0.66,4.61 -1.02,6.2 -0.35,1.56 -0.74,2.81 -1.17,3.71 -0.43,0.93 -0.9,1.64 -1.4,2.11 -0.51,0.51 -1.05,0.98 -1.64,1.36l-1.52 0 0 9.21 2.81 0 0.35 -6.52 19.51 0 0.35 6.52 2.81 0 0 -9.21 -3.08 0z"/>
   <polygon class="fil0" points="476.54,384.39 421.79,384.39 421.79,285.85 443.57,285.85 443.57,369.67 460.11,369.67 460.11,285.85 481.89,285.85 481.89,369.67 495.27,369.67 495.27,405.65 479.31,405.65 "/>
   <path class="fil0" d="M505.72 463.21c-0.82,1.33 -2.46,1.99 -4.96,1.99l-5.07 0 0 -16.16 5.19 0c1.52,0 2.73,0.35 3.63,1.02 0.9,0.66 1.52,1.6 1.91,2.77 0.35,1.21 0.55,2.57 0.55,4.1 0,2.85 -0.43,4.92 -1.25,6.28zm-10.03 -30.52l3.35 0c1.95,0 3.44,0.23 4.45,0.7 1.06,0.47 1.76,1.21 2.19,2.19 0.43,1.02 0.63,2.26 0.63,3.82 0,1.41 -0.16,2.61 -0.47,3.63 -0.31,1.02 -0.86,1.8 -1.64,2.38 -0.78,0.59 -1.91,0.86 -3.36,0.86l-5.15 0 0 -13.58zm14.24 20.21c-0.31,-1.29 -0.9,-2.42 -1.76,-3.44 -0.82,-0.98 -1.99,-1.68 -3.47,-2.07 1.25,-0.23 2.23,-0.78 2.93,-1.56 0.66,-0.82 1.17,-1.75 1.48,-2.93 0.27,-1.13 0.43,-2.3 0.43,-3.51 0,-1.4 -0.16,-2.69 -0.51,-3.86 -0.31,-1.17 -0.82,-2.19 -1.56,-3.05 -0.7,-0.82 -1.68,-1.48 -2.85,-1.91 -1.17,-0.43 -2.66,-0.66 -4.37,-0.66l-8.16 0 0 37.97 9.4 0c1.76,0 3.24,-0.31 4.37,-0.9 1.17,-0.54 2.07,-1.36 2.77,-2.34 0.66,-1.02 1.13,-2.19 1.4,-3.51 0.24,-1.33 0.39,-2.73 0.39,-4.22 0,-1.36 -0.16,-2.73 -0.51,-4.02z"/>
   <polygon class="fil0" points="531.06,429.93 533.83,429.93 533.83,467.9 530.63,467.9 530.63,437.65 518.41,467.9 515.6,467.9 515.6,429.93 518.8,429.93 518.8,460.02 "/>
   <polygon class="fil0" points="518.5,384.39 505.23,384.39 505.23,285.85 522.4,285.85 522.4,342.28 547.58,285.85 561.66,285.85 561.66,384.39 544.14,384.39 544.14,326.98 "/>
   <polygon class="fil0" points="556.89,448.19 566.29,467.9 562.78,467.9 554.08,448.73 553.61,448.73 553.61,467.9 550.45,467.9 550.45,448.73 550.02,448.73 541.31,467.9 537.8,467.9 547.17,448.19 538.7,429.93 542.17,429.93 550.14,448.07 550.45,448.07 550.45,429.93 553.61,429.93 553.61,448.07 553.92,448.07 561.92,429.93 565.39,429.93 "/>
   <polygon class="fil0" points="585.69,429.93 588.46,429.93 588.46,467.9 585.26,467.9 585.26,437.65 573.04,467.9 570.23,467.9 570.23,429.93 573.39,429.93 573.39,460.02 "/>
   <polygon class="fil0" points="617.92,429.93 618.86,467.9 615.89,467.9 615.15,437.65 607.89,467.9 605.59,467.9 598.45,437.69 597.67,467.9 594.74,467.9 595.68,429.93 599.23,429.93 606.72,462.86 614.37,429.93 "/>
   <path class="fil0" d="M613.6 330.14l-3.16 0c-5.19,0 -8.74,-1.4 -10.69,-4.21 -1.95,-2.77 -2.93,-6.28 -2.93,-10.5 0,-4.8 1.09,-8.43 3.36,-10.89 2.22,-2.5 5.54,-3.71 10.03,-3.71l3.4 0 0 29.31zm-3.67 -44.29c-6.95,0 -12.92,0.9 -17.92,2.61 -5,1.76 -8.82,4.76 -11.51,9.02 -2.66,4.25 -4.02,10.19 -4.02,17.84 0,5.81 1.21,10.93 3.59,15.3 2.42,4.37 5.46,7.72 9.21,9.99l-18.73 43.78 23.45 0 14.36 -38.94 5.23 0 0 38.94 21.66 0 0 -98.54 -25.32 0z"/>
   <path class="fil0" d="M640.29 457.48c0,1.6 -0.19,3.01 -0.51,4.22 -0.31,1.17 -0.94,2.1 -1.8,2.81 -0.9,0.66 -2.14,0.98 -3.78,0.98 -1.72,0 -3.01,-0.31 -3.87,-0.98 -0.9,-0.7 -1.52,-1.64 -1.83,-2.81 -0.35,-1.21 -0.51,-2.62 -0.51,-4.22l0 -17.21c0,-1.56 0.16,-2.97 0.51,-4.14 0.31,-1.21 0.94,-2.11 1.83,-2.77 0.86,-0.62 2.15,-0.94 3.87,-0.94 1.64,0 2.89,0.31 3.78,0.94 0.86,0.66 1.49,1.56 1.8,2.77 0.31,1.17 0.51,2.57 0.51,4.14l0 17.21zm2.7 -22.56c-0.59,-1.72 -1.6,-3.01 -3.01,-3.94 -1.45,-0.94 -3.35,-1.44 -5.77,-1.44 -2.5,0 -4.41,0.51 -5.86,1.44 -1.4,0.93 -2.42,2.22 -3.04,3.94 -0.63,1.72 -0.9,3.71 -0.9,6.01l0 15.76c0,2.27 0.27,4.29 0.86,6.05 0.59,1.76 1.56,3.16 3.01,4.14 1.4,0.97 3.4,1.48 5.93,1.48 2.5,0 4.45,-0.51 5.85,-1.52 1.4,-0.97 2.38,-2.34 2.97,-4.1 0.59,-1.72 0.86,-3.75 0.86,-6.01l0 -15.8c0,-2.3 -0.31,-4.29 -0.9,-6.01z"/>
   <path class="fil0" d="M666.75 434.61c0.55,1.6 0.86,3.51 0.86,5.74l0 2.26 -3.4 0 0 -2.18c0,-1.64 -0.12,-3.08 -0.39,-4.25 -0.27,-1.21 -0.82,-2.11 -1.6,-2.77 -0.82,-0.66 -2.03,-0.97 -3.59,-0.97 -1.72,0 -3.01,0.35 -3.87,1.05 -0.86,0.7 -1.44,1.68 -1.72,2.97 -0.31,1.29 -0.47,2.77 -0.47,4.45l0 16.15c0,1.87 0.2,3.44 0.55,4.68 0.35,1.25 0.98,2.19 1.87,2.81 0.86,0.62 2.07,0.94 3.63,0.94 1.6,0 2.81,-0.31 3.59,-1.02 0.78,-0.7 1.33,-1.64 1.6,-2.89 0.27,-1.21 0.39,-2.66 0.39,-4.33l0 -2.5 3.4 0 0 2.26c0,2.22 -0.27,4.18 -0.78,5.89 -0.51,1.68 -1.44,3.04 -2.73,3.98 -1.29,0.97 -3.12,1.48 -5.5,1.48 -2.57,0 -4.53,-0.55 -5.93,-1.6 -1.37,-1.05 -2.34,-2.5 -2.89,-4.29 -0.51,-1.8 -0.78,-3.78 -0.78,-5.97l0 -15.1c0,-2.34 0.28,-4.41 0.82,-6.16 0.55,-1.8 1.52,-3.16 2.93,-4.18 1.4,-1.02 3.35,-1.52 5.85,-1.52 2.26,0 4.06,0.47 5.39,1.32 1.29,0.9 2.23,2.11 2.77,3.75z"/>
   <polygon class="fil0" points="670.7,429.93 688.41,429.93 688.41,432.7 681.43,432.7 681.43,467.9 677.84,467.9 677.84,432.7 670.7,432.7 "/>
   <polygon class="fil0" points="707.96,429.93 710.73,429.93 710.73,467.9 707.57,467.9 707.57,437.65 695.32,467.9 692.51,467.9 692.51,429.93 695.71,429.93 695.71,460.02 "/>
   <polygon class="fil0" points="724.15,285.84 738.28,285.84 738.28,384.38 720.76,384.38 720.76,326.98 695.08,384.38 681.81,384.38 681.81,285.84 698.98,285.84 698.98,342.27 "/>
   <polygon class="fil0" points="821.2,334.86 841.88,384.38 822.41,384.38 803.91,336.58 802.82,336.58 802.82,384.38 785.57,384.38 785.57,336.58 784.59,336.58 766.1,384.38 746.62,384.38 767.31,334.86 747.13,285.84 767.43,285.84 784.59,331.97 785.57,331.97 785.57,285.84 802.82,285.84 802.82,331.97 803.91,331.97 821.08,285.84 841.38,285.84 "/>
   <path class="fil0" d="M885.18 321.48l0 -9.83c0,-1.95 -0.08,-3.82 -0.28,-5.58 -0.23,-1.79 -0.82,-3.28 -1.79,-4.45 -0.98,-1.17 -2.61,-1.76 -4.96,-1.76 -2.3,0 -3.98,0.59 -5.07,1.8 -1.09,1.25 -1.76,2.77 -2.07,4.56 -0.27,1.83 -0.43,3.75 -0.43,5.77l0 46.36c0,2.18 0.19,4.18 0.55,6.01 0.39,1.84 1.09,3.28 2.19,4.37 1.13,1.09 2.73,1.64 4.84,1.64 2.26,0 3.86,-0.59 4.84,-1.76 0.98,-1.17 1.6,-2.69 1.83,-4.57 0.23,-1.83 0.35,-3.75 0.35,-5.7l0 -10.34 21.31 0 0 8.51c0,5.58 -0.86,10.61 -2.5,15.02 -1.68,4.41 -4.52,7.92 -8.62,10.46 -4.1,2.54 -9.83,3.83 -17.21,3.83 -7.49,0 -13.39,-1.37 -17.72,-4.06 -4.33,-2.73 -7.38,-6.52 -9.17,-11.44 -1.79,-4.92 -2.69,-10.69 -2.69,-17.33l0 -35.51c0,-6.83 0.9,-12.68 2.69,-17.6 1.8,-4.88 4.84,-8.7 9.17,-11.35 4.33,-2.69 10.22,-4.02 17.72,-4.02 7.3,0 12.99,1.21 17.05,3.59 4.1,2.38 7.02,5.74 8.7,10.03 1.72,4.29 2.58,9.25 2.58,14.83l0 8.51 -21.31 0z"/>
   <path class="fil1" d="M191.46 240.46l522.55 0 0 -100.56 -146.34 -139.86 -28.89 27.29 -28.6 -27.33 -28.73 27.45 -28.72 -27.45 -28.73 27.45 -28.72 -27.45 -28.63 27.36 -28.85 -27.34 -146.36 139.88 0 100.56zm465.1 -100.56l-103.19 -98.63 14.22 -13.45 126.28 120.69 0 71.8 -37.31 0 0 -80.41zm-444.95 8.61l126.27 -120.68 14.21 13.46 -103.17 98.61 0 80.41 -37.3 0 0 -71.8zm387.51 -8.61l-103.08 -98.52 14.15 -13.52 126.23 120.65 0 71.8 -37.3 0 0 -80.41zm-160.58 -43.56l-7.3 -6.96 -7.3 -6.95 -14.16 -13.5 14.24 -13.62 7.29 -6.96 7.29 -6.97 14.15 -13.52 14.14 13.52 7.29 6.97 7.29 6.96 14.25 13.62 -21.47 20.45 -7.3 6.96 -14.2 13.54 -14.2 -13.54zm-169.47 52.17l126.23 -120.65 14.14 13.52 -103.08 98.52 0 80.41 -37.3 0 0 -71.8zm215.16 -8.62l-16.89 -16.09 42.95 -40.93 68.69 65.65 0 71.8 -94.75 0 0 -80.42zm-157.72 8.62l68.69 -65.65 14.16 13.5 7.29 6.96 7.31 6.96 14.18 13.52 -16.88 16.09 0 80.42 -37.3 0 -10.08 0 -10.07 0 -37.3 0 0 -71.8zm114.9 0l11.34 -10.81 11.34 10.81 0 71.8 -22.68 0 0 -71.8z"/>
  </g>
 </g>
</svg>